<?xml version="1.0" standalone="no"?>
<!DOCTYPE svg PUBLIC "-//W3C//DTD SVG 1.1//EN" "http://www.w3.org/Graphics/SVG/1.1/DTD/svg11.dtd" >
<svg>
<metadata>
Created by FontForge 20110222 at Mon Mar  7 13:06:46 2011
 By www-data
Typeface (c) (your company). 2009. All Rights Reserved
</metadata>
<defs>
<font id="iceagefont" horiz-adv-x="1014" >
  <font-face 
    font-family="ice age font"
    font-weight="400"
    font-stretch="normal"
    units-per-em="2048"
    panose-1="2 0 5 0 0 0 0 0 0 0"
    ascent="1638"
    descent="-410"
    x-height="980"
    cap-height="1010"
    bbox="2 -149 3357 1096"
    underline-thickness="150"
    underline-position="-142"
    unicode-range="U+0020-2122"
  />
    <missing-glyph />
    <glyph glyph-name="space" unicode=" " horiz-adv-x="508" 
 />
    <glyph glyph-name="space" unicode="&#xa0;" horiz-adv-x="508" 
 />
    <glyph glyph-name="exclam" unicode="!" horiz-adv-x="497" 
 />
    <glyph glyph-name="quotedbl" unicode="&#x22;" horiz-adv-x="672" 
 />
    <glyph glyph-name="numbersign" unicode="#" horiz-adv-x="1336" 
 />
    <glyph glyph-name="dollar" unicode="$" 
 />
    <glyph glyph-name="percent" unicode="%" horiz-adv-x="1610" 
 />
    <glyph glyph-name="ampersand" unicode="&#x26;" horiz-adv-x="1683" 
 />
    <glyph glyph-name="quotesingle" unicode="'" horiz-adv-x="346" 
d="M201 972l64 -67l-64 -270h-31q-77 0 -96 303l32 34h95z" />
    <glyph glyph-name="parenleft" unicode="(" horiz-adv-x="758" 
 />
    <glyph glyph-name="parenright" unicode=")" horiz-adv-x="758" 
 />
    <glyph glyph-name="asterisk" unicode="*" horiz-adv-x="1024" 
 />
    <glyph glyph-name="plus" unicode="+" 
 />
    <glyph glyph-name="comma" unicode="," horiz-adv-x="369" 
d="M201 188l64 -67l-64 -270h-31q-77 0 -96 303l32 34h95z" />
    <glyph glyph-name="hyphen" unicode="-" horiz-adv-x="670" 
 />
    <glyph glyph-name="hyphen" unicode="&#xad;" horiz-adv-x="670" 
 />
    <glyph glyph-name="period" unicode="." horiz-adv-x="505" 
d="M171 285h154l93 -87v-86l-93 -87h-124l-92 87v115zM201 198v-115h93l31 29h31l-31 86h-124z" />
    <glyph glyph-name="slash" unicode="/" horiz-adv-x="569" 
 />
    <glyph glyph-name="zero" unicode="0" horiz-adv-x="984" 
d="M424 1005h62q493 0 493 -464v-232q0 -290 -493 -290q-423 0 -462 464q0 522 400 522zM147 628v-261q0 -261 339 -261h123q278 0 278 203v261q0 348 -339 348h-154q-247 0 -247 -290zM394 686h61l93 -87v-58l-93 -87h-61l-93 87v58zM394 628v-87h61v29z" />
    <glyph glyph-name="one" unicode="1" horiz-adv-x="629" 
d="M133 995h410l63 -58v-874l-63 -58h-347l-63 58v524q-95 0 -95 59q16 349 95 349zM164 908v-59l-31 -203q94 0 94 -59v-495h284l32 495v321h-379z" />
    <glyph glyph-name="two" unicode="2" horiz-adv-x="1101" 
d="M302 1008h364q401 -58 401 -321q0 -227 -364 -380v-29q291 0 291 -59v-116q-36 -88 -219 -88h-619l-73 58v146l219 176v58q-219 0 -219 59v408q36 88 219 88zM156 891q0 -379 219 -379l36 -88l-219 -234v-87h693v87h-401v29q474 265 474 468q-27 233 -292 233h-255z" />
    <glyph glyph-name="three" unicode="3" horiz-adv-x="1070" 
d="M120 1017h425q425 -31 425 -308v-31l-71 -185l142 -123v-123q0 -247 -319 -247h-602l-71 62v154q0 61 390 61v31q-284 0 -284 62v61q36 93 213 93v31q-319 0 -319 61v339zM155 925v-309h213l106 -92q-35 -93 -212 -93v-30q283 0 283 -93v-31q-22 -92 -283 -92h-107v-93
l248 -30q532 21 532 123v185l-107 92l36 216v92q0 165 -532 185z" />
    <glyph glyph-name="four" unicode="4" 
d="M340 1010l30 -29v-413h59v295l59 59h355l59 -59v-295q89 0 89 -59v-207q0 -59 -89 -59v-177l-59 -59h-355l-59 59v148h-325l-59 59l-30 678zM104 863v-561h355l59 -59v-147h325v177l59 88v89l-59 88v325l-29 -30h-326v-354h-118l-59 59v325l-59 59h-89z" />
    <glyph glyph-name="five" unicode="5" 
d="M873 1017l31 -30v-386q0 -59 -343 -59v-30q437 0 437 -238q0 -267 -437 -267h-312l-63 59v90q0 59 375 89v29h-437q-94 0 -94 624v30l62 59h250zM155 928v-594l218 29h32q230 0 250 -89v-29q-32 -89 -188 -89h-187v-60h406q218 0 218 208v59q-19 90 -249 90h-188l-62 59
v89h406v327h-656z" />
    <glyph glyph-name="six" unicode="6" 
d="M559 1002q336 -22 336 -85v-169h-183l-153 -28v-28q428 0 428 -226v-169q0 -282 -551 -282q-397 0 -397 367l-31 112q0 508 551 508zM130 664v-339q0 -225 306 -225h153q306 0 306 197v197l-122 113h-275l-62 57q43 141 214 141h153v112h-428q-245 0 -245 -253zM498 494
h91l92 -84v-28l-92 -85h-122l-61 56v57zM498 410v-28h91v28h-91z" />
    <glyph glyph-name="seven" unicode="7" 
d="M945 1002l68 -58q0 -320 -273 -639q-27 -290 -103 -290h-409q-68 0 -68 87q0 203 239 465q-342 0 -342 87l-34 319l34 29h888zM125 915l35 -29v-232h409v-29q-273 -249 -273 -465v-58h307q0 294 273 552v261h-751z" />
    <glyph glyph-name="eight" unicode="8" 
d="M531 995q329 0 329 -229v-28l-30 -143l150 -143v-257q0 -154 -508 -172h-120q-235 0 -329 172v200l60 57l-30 200v57q0 286 478 286zM113 652l30 -86l-30 -314v-29l119 -114h359q329 0 329 257l-149 229l30 171q-42 143 -210 143h-60q-418 0 -418 -257zM412 795h90
l89 -86v-28l-89 -86h-60l-90 86v57zM442 709v-28h60v28h-60zM442 480h149l60 -57v-28l-90 -86h-119l-90 86zM442 423v-57h60l59 57h-119z" />
    <glyph glyph-name="nine" unicode="9" 
d="M519 1002q456 0 456 -331v-302q0 -361 -489 -361h-326l-65 60v121q0 60 359 60v30q-424 0 -424 392q0 331 489 331zM128 701q0 -332 326 -332l163 -30q0 -160 -424 -180v-91h163q521 0 521 241v392q0 211 -228 211h-293q-228 0 -228 -211zM454 610h97l98 -90v-30
q0 -90 -130 -90l-131 90v60zM486 550v-60h65v60h-65z" />
    <glyph glyph-name="colon" unicode=":" horiz-adv-x="490" 
d="M171 285h154l93 -87v-86l-93 -87h-124l-92 87v115zM201 198v-115h93l31 29h31l-31 86h-124zM148 677h154l93 -87v-86l-93 -87h-124l-92 87v115zM178 590v-115h93l31 29h31l-31 86h-124z" />
    <glyph glyph-name="semicolon" unicode=";" horiz-adv-x="557" 
 />
    <glyph glyph-name="semicolon" unicode="&#x37e;" horiz-adv-x="557" 
 />
    <glyph glyph-name="less" unicode="&#x3c;" 
 />
    <glyph glyph-name="equal" unicode="=" 
 />
    <glyph glyph-name="greater" unicode="&#x3e;" 
 />
    <glyph glyph-name="question" unicode="?" horiz-adv-x="748" 
 />
    <glyph glyph-name="at" unicode="@" horiz-adv-x="3465" 
d="M473 1015h24q156 0 156 -36v-183q0 -25 -72 -25v-24q0 -29 96 -49v-73l-24 -24h-48q-289 0 -289 109v37q0 268 157 268zM352 747q0 -110 157 -110h120v49q-60 0 -85 73q0 49 73 49l12 158l-12 13h-181q-84 -31 -84 -232zM700 993h213q120 0 134 -128v-11q0 -66 -67 -118
v-32q0 -21 40 -21l13 -11v-43l-26 -21h-107q-33 0 -66 107h-14q0 -75 -26 -75h-94q-40 0 -40 278v43zM713 961l-13 -54v-235h80q0 69 40 75h14q33 0 66 -107h94v21q-54 0 -54 86q67 41 67 86v21q0 107 -94 107h-200zM820 854q80 -7 80 -32q-18 -54 -93 -54l-13 11v54z
M834 822v-21h26v21h-26zM1086 985h313l31 -23v-142q0 -23 -63 -23l16 -12v-83q47 0 47 -23v-48l-31 -23h-298q-47 0 -47 306v48zM1117 950l-16 -319h16l172 12h94v24q-94 0 -94 24v35h63v35q-78 0 -78 24v12q0 23 109 35v118h-266zM1491 985h295l29 -23v-139q0 -22 -59 -22
l15 -12v-81q44 0 44 -23v-46l-29 -23h-281q-44 0 -44 300v46zM1520 951l-15 -312h15l162 11h89v24q-89 0 -89 23v34h59v35q-73 0 -73 23v12q0 22 103 34v116h-251zM2013 993h217q115 0 128 -136v-45q0 -113 -115 -113h-51v-57q0 -26 -179 -34l-25 91v271zM2026 959v-317h128
v57q0 16 153 45l13 11v91q0 124 -128 124zM2179 846h26q38 0 38 -45q-21 -57 -76 -57l-13 11v68zM2192 812v-23h13v23h-13zM2658 1001q26 0 64 -381l-13 -12h-89q-25 0 -25 37h-39q0 -37 -37 -37q-166 0 -166 37q80 344 102 344zM2391 657l140 -24q0 36 25 36h51l39 -24h51
q-48 319 -77 319h-25q-140 0 -140 -61zM2595 792l25 -86l-13 -12h-51q0 91 39 98zM2802 986h194q110 0 122 -129v-11q0 -67 -61 -118v-32q0 -22 37 -22l12 -11v-43l-25 -21h-97q-30 0 -61 107h-12q0 -75 -24 -75h-85q-37 0 -37 280v43zM2814 954l-12 -54v-237h72q0 69 37 76
h12q31 0 61 -108h85v22q-48 0 -48 86q60 41 60 86v21q0 108 -85 108h-182zM2911 846q73 -7 73 -32q-17 -54 -85 -54l-12 11v54zM2923 814v-21h25v21h-25zM459 560q48 0 63 -234l-84 -16v-17q63 0 63 -34v-50q0 -33 -126 -33v-134l-42 -33q-272 8 -272 50v150l-21 334l21 17
h398zM124 510v-434h83l106 -17q0 167 125 167v33q-105 0 -105 67l126 17v84l-21 83h-314zM579 564h192l35 -34v-336h104l35 -34v-117l-35 -34h-348l-18 17h-17l17 84v420zM597 514l-18 -455h314v85h-87q-53 0 -53 218v152h-156zM1245 547h32q180 0 180 -393
q0 -141 -310 -141q-180 0 -180 189q0 329 147 329zM1016 217q0 -157 114 -157h66q187 0 212 79q0 320 -98 361h-131q-146 0 -146 -157zM1212 296h82l49 -48v-46l-49 -48h-66l-49 48v62zM1228 248v-62h49l17 16h16l-16 46h-66zM1556 565h272q153 0 170 -186v-15
q0 -96 -85 -169v-47q0 -31 51 -31l17 -16v-61l-34 -31h-136q-43 0 -85 154h-17q0 -107 -34 -107h-119q-51 0 -51 401v61zM1573 518l-17 -77v-340h102q0 100 51 109h17q42 0 85 -154h119v30q-68 0 -68 124q85 59 85 124v30q0 154 -119 154h-255zM1709 364q102 -9 102 -46
q-24 -78 -119 -78l-17 16v78zM1726 318v-31h34v31h-34zM2062 569h183l34 -33l16 -485q-65 -33 -183 -33h-50l-33 33v485zM2079 519v-434h183l-17 83v100l-16 251h-150zM2737 571q35 0 89 -510l-18 -16h-125q-36 0 -36 49h-53q0 -49 -54 -49q-232 0 -232 49q112 461 143 461z
M2362 111l196 -33q0 49 36 49h71l54 -33h71q-67 428 -107 428h-36q-196 0 -196 -82zM2647 292l36 -115l-18 -17h-71q0 122 53 132zM3257 614h50l34 -37v-447l16 -93l-16 -19h-133q-100 72 -100 131h-16q0 -131 -34 -131h-182l-34 37v428l-16 94l16 18h199q38 0 84 -167h17
v55l-17 94zM3174 558v-261h-16l-149 243h-117v-466h149v167h17q150 -131 150 -186h16l83 19l-16 466l-17 18h-100z" />
    <glyph glyph-name="A" unicode="A" horiz-adv-x="904" 
d="M751 1010q61 0 153 -963l-31 -31h-214q-62 0 -62 93h-92q0 -93 -91 -93q-399 0 -399 93q193 870 245 870zM107 140l337 -62q0 93 61 93h123l92 -62h123q-115 808 -184 808h-62q-337 0 -337 -155zM597 482l62 -217l-31 -32h-123q0 230 92 249z" />
    <glyph glyph-name="B" unicode="B" horiz-adv-x="919" 
d="M316 1002q585 0 585 -338v-85l-53 -253l53 -56v-29q0 -225 -346 -225h-266q-213 0 -213 169l-26 507v141l-27 141l27 28h266zM129 917v-394l27 -422h506q159 0 159 169l-53 84l53 85v140q0 338 -346 338h-346zM449 579q159 -17 159 -84v-28q-43 -113 -186 -113l-27 28
v141zM475 495v-56h54zM449 270h106l53 -57q-26 -84 -159 -84l-54 56v28zM475 213v-28h54v28h-54z" />
    <glyph glyph-name="C" unicode="C" horiz-adv-x="882" 
d="M380 1002h57q372 0 372 -87v-436q0 -58 -172 -58v-58q0 -69 229 -116v-174l-57 -58h-115q-686 0 -686 261v87q0 639 372 639zM94 363q0 -261 372 -261h286v116q-143 0 -201 174q0 117 172 117l29 377l-29 29h-429q-200 -73 -200 -552z" />
    <glyph glyph-name="D" unicode="D" horiz-adv-x="897" 
d="M70 995h494q309 -41 309 -308v-278q0 -401 -525 -401h-278l-62 62v863zM101 902v-832h216q463 0 463 339v278q0 165 -123 215h-556zM410 502h61l124 -124q-43 -154 -216 -154l-31 31v185zM441 409v-93l61 62l-31 31h-30z" />
    <glyph glyph-name="E" unicode="E" horiz-adv-x="889" 
d="M93 987h695l69 -60v-362q0 -60 -139 -60l35 -30v-211q104 0 104 -60v-121l-69 -60h-661q-104 0 -104 783v121zM162 897l-35 -814h35l382 30h209v61q-209 0 -209 60v90h139v91q-173 0 -173 60v30q0 60 243 90v302h-591z" />
    <glyph glyph-name="F" unicode="F" horiz-adv-x="889" 
d="M752 1002q83 0 109 -415l-146 -30v-30q110 0 110 -59v-89q0 -59 -219 -59v-238l-73 -59q-474 14 -474 89v267l-36 593l36 30h693zM169 913v-771h145l183 -30q0 297 218 297v59q-182 0 -182 119l219 29v149l-37 148h-546z" />
    <glyph glyph-name="G" unicode="G" horiz-adv-x="1002" 
d="M495 1008q391 -36 391 -113v-310q0 -56 -300 -56l-60 -85q45 -113 90 -113q0 169 60 169h240l60 -56v-338q0 -85 -481 -85h-180q-270 37 -270 254v113q0 620 450 620zM135 388v-170q0 -98 300 -141l391 29h60v310h-210v-28q150 0 150 -57v-28l-60 -56h-90
q-241 28 -241 197q42 141 211 141h150v310l-301 28h-30q-330 0 -330 -535zM646 331v-28h90v28h-90z" />
    <glyph glyph-name="H" unicode="H" horiz-adv-x="995" 
d="M111 1002h362l65 -60v-362h66v332l66 60h230q99 0 99 -542v-332q0 -67 -362 -90l-66 241h-65v-151l-66 -60h-329l-66 60v844zM144 912v-784h230q66 0 66 151l33 30h131q66 0 66 -150l33 -31h230l-66 754h-197v-332l-66 -60h-98l-66 60v362h-296z" />
    <glyph glyph-name="I" unicode="I" horiz-adv-x="723" 
d="M162 1010h422l77 -60l38 -875q-150 -60 -422 -60h-115l-77 60v875zM200 920v-784h422l-38 150v181l-38 453h-346z" />
    <glyph glyph-name="J" unicode="J" horiz-adv-x="897" 
d="M445 1002h343q57 0 57 -93l29 -555q0 -339 -429 -339q-430 30 -430 308q18 186 86 186h200q58 0 58 -155h28l29 93l-29 339v154zM473 909v-555l-86 -92l-143 154h-143v-62q0 -246 286 -246h172q229 0 229 246l-29 555h-286z" />
    <glyph glyph-name="K" unicode="K" horiz-adv-x="995" 
d="M637 1002l341 -28v-55l-227 -332q0 -118 113 -359l29 28h28l57 -56v-110q0 -62 -313 -83l-170 276l-29 -27v-28l29 -138l-29 -28h-369l-57 56v801l57 55q369 0 369 -165zM637 919q0 -73 -227 -332l-29 28v276h-199l-57 -55v-691h256q0 152 171 249h28q85 -304 142 -304
h171v83q-147 0 -228 442l199 276v28h-227z" />
    <glyph glyph-name="L" unicode="L" horiz-adv-x="889" 
d="M128 987h386l70 -59v-589h211l70 -59v-206l-70 -59h-702l-35 29h-35l35 148v736zM163 899l-35 -796h632v148h-176q-105 0 -105 383v265h-316z" />
    <glyph glyph-name="M" unicode="M" horiz-adv-x="1259" 
d="M302 995q90 0 234 -367h66q134 336 200 336h367l67 -61v-827l-67 -61h-333q-67 0 -67 184l-133 -92h-100q-67 0 -67 92h-33q0 -184 -67 -184h-267l-67 61v368l-33 520l33 31h267zM102 903v-490l33 -306h201v276l66 61l200 -276q60 0 167 245h67l33 -306h300v31l-33 735
h-267l-300 -399q-55 0 -267 429h-200z" />
    <glyph glyph-name="N" unicode="N" horiz-adv-x="1010" 
d="M807 1010h91l61 -62v-746l30 -156l-30 -31h-243q-182 121 -182 218h-30q0 -218 -61 -218h-334l-61 62v715l-30 156l30 31h364q68 0 152 -280h31v93l-31 156zM655 917v-436h-30l-273 405h-213v-778h273v280h31q273 -219 273 -311h30l152 31l-30 778l-31 31h-182z" />
    <glyph glyph-name="O" unicode="O" horiz-adv-x="987" 
d="M557 995h62q340 0 340 -721q0 -259 -587 -259q-340 0 -340 346q0 605 278 605zM125 390q0 -289 216 -289h124q354 0 401 145q0 588 -185 663h-247q-278 0 -278 -289zM496 534h154l93 -87v-86l-93 -87h-124l-92 87v115zM526 447v-115h93l31 29h31l-31 86h-124z" />
    <glyph glyph-name="P" unicode="P" horiz-adv-x="1048" 
d="M110 995h553q293 0 326 -343v-114q0 -286 -293 -286h-130v-143q0 -65 -456 -86l-65 229v686zM143 909v-800h325v143q0 42 391 114l32 29v228q0 315 -325 315zM533 623h65q98 0 98 -114q-53 -143 -195 -143l-33 29v171zM566 538v-58h32v58h-32z" />
    <glyph glyph-name="Q" unicode="Q" horiz-adv-x="1010" 
d="M407 1010h58q492 0 492 -423v-174q-36 -199 -174 -199v-25q116 0 116 -50v-74l-58 -50h-290q-57 0 -86 149q-435 0 -435 349q0 497 377 497zM146 712v-274q0 -224 348 -224q67 -149 115 -149h203v74q-145 0 -145 75q203 50 203 199v174q0 348 -232 348h-347
q-87 0 -145 -223zM407 587h144l58 -50v-74l-115 -75q-145 32 -145 75v74zM436 537v-74h29l57 50v24h-86z" />
    <glyph glyph-name="R" unicode="R" horiz-adv-x="1002" 
d="M133 995h521q293 0 326 -327v-27q0 -169 -163 -299v-82q0 -54 98 -54l32 -28v-109l-65 -54h-260q-82 0 -163 272h-33q0 -190 -65 -190h-228q-98 0 -98 707v109zM165 913l-32 -136v-599h195q0 175 98 191h33q81 0 163 -272h228v54q-131 0 -131 218q163 105 163 218v54
q0 272 -228 272h-489zM426 641q196 -17 196 -82q-46 -136 -229 -136l-32 28v136zM459 559v-54h65v54h-65z" />
    <glyph glyph-name="S" unicode="S" horiz-adv-x="1010" 
d="M704 1002q267 -18 267 -87v-377l-67 -59h-233v-29q0 -46 267 -116l33 -145v-58q-54 -116 -233 -116h-600l-67 58v87l67 58h367v29q-467 0 -467 436q0 319 666 319zM138 567q41 -291 466 -291v-58l-66 -58h-367v-87h433q246 0 267 87v87q0 51 -300 145v87q33 88 200 88
h100v290l-67 58h-200q-466 0 -466 -261v-87z" />
    <glyph glyph-name="T" unicode="T" horiz-adv-x="1002" 
d="M911 1002l67 -59q0 -416 -100 -416h-167v-415q0 -66 -366 -89l-33 30v445h-167q-77 0 -100 474l33 30h833zM178 913v-326h167l67 -60v-385h199v59q0 386 100 386h167v326h-700z" />
    <glyph glyph-name="U" unicode="U" horiz-adv-x="1002" 
d="M718 1002h154l62 -62v-61l31 -556q0 -308 -433 -308q-494 0 -494 463v31q0 431 93 431h154l62 -61v-155l31 -370h93v555q19 93 247 93zM563 909v-555l-61 -61h-124q-93 30 -93 185v401h-123l-31 -556q37 -215 278 -215h185q278 0 278 215l-31 586h-278z" />
    <glyph glyph-name="V" unicode="V" horiz-adv-x="919" 
d="M459 987l65 -203h32l65 145q259 -29 259 -87q-73 -811 -162 -811h-356q-65 0 -324 898zM168 871q185 -753 259 -753h259l97 724h-130l-64 -261h-65q-97 319 -162 319h-33z" />
    <glyph glyph-name="W" unicode="W" horiz-adv-x="1492" 
d="M297 987h33q78 0 97 -273l32 -30h33q19 273 97 273h324q97 0 130 -243h32q0 224 97 243h195l97 -91q-89 -820 -162 -820h-292l-162 152q0 -157 -97 -182h-421q-87 0 -292 910zM135 896q195 -789 260 -789h356l65 273h97q40 -227 130 -243h227l97 729h-130
q-73 0 -129 -364h-33q-65 0 -162 364h-259q-65 0 -162 -395h-65q-87 425 -162 425h-130z" />
    <glyph glyph-name="X" unicode="X" horiz-adv-x="1002" 
d="M500 980l69 -146h35q0 88 68 88h241l69 -59q-241 -272 -241 -380l172 -380v-59h-241l-172 -29l-69 146h-34q0 -117 -103 -117h-172l-35 29h-34q182 319 241 322l-241 527zM191 863l172 -468l-172 -263l34 -29h34l172 175q81 -175 138 -175l241 29q-172 301 -172 439
l206 263l-137 29q-67 -133 -138 -146q-103 29 -103 175h-35z" />
    <glyph glyph-name="Y" unicode="Y" horiz-adv-x="1002" 
d="M673 995h62l248 -61q-248 -534 -248 -674v-184l-62 -61h-309q-62 0 -62 337l-279 582l31 30h403q70 0 92 -153h31q31 184 93 184zM147 873l248 -613v-153h247v153l217 643h-124q-68 0 -124 -245h-93q0 167 -123 245z" />
    <glyph glyph-name="Z" unicode="Z" horiz-adv-x="1010" 
d="M131 987h749l71 -59v-412l-285 -235q249 0 249 -59v-118l-71 -59h-214l-534 -29l-36 29v148q219 235 321 235v29q-321 0 -321 59v412zM167 899v-383l178 30h143l71 -59l-392 -324v-59h641v89h-249l-71 58l356 295v353h-677z" />
    <glyph glyph-name="bracketleft" unicode="[" horiz-adv-x="758" 
 />
    <glyph glyph-name="backslash" unicode="\" horiz-adv-x="569" 
 />
    <glyph glyph-name="bracketright" unicode="]" horiz-adv-x="758" 
 />
    <glyph glyph-name="asciicircum" unicode="^" 
 />
    <glyph glyph-name="underscore" unicode="_" horiz-adv-x="1024" 
 />
    <glyph glyph-name="grave" unicode="`" horiz-adv-x="1024" 
 />
    <glyph glyph-name="a" unicode="a" horiz-adv-x="922" 
d="M751 1010q61 0 153 -963l-31 -31h-214q-62 0 -62 93h-92q0 -93 -91 -93q-399 0 -399 93q193 870 245 870zM107 140l337 -62q0 93 61 93h123l92 -62h123q-115 808 -184 808h-62q-337 0 -337 -155zM597 482l62 -217l-31 -32h-123q0 230 92 249z" />
    <glyph glyph-name="b" unicode="b" horiz-adv-x="950" 
d="M316 1002q585 0 585 -338v-85l-53 -253l53 -56v-29q0 -225 -346 -225h-266q-213 0 -213 169l-26 507v141l-27 141l27 28h266zM129 917v-394l27 -422h506q159 0 159 169l-53 84l53 85v140q0 338 -346 338h-346zM449 579q159 -17 159 -84v-28q-43 -113 -186 -113l-27 28
v141zM475 495v-56h54zM449 270h106l53 -57q-26 -84 -159 -84l-54 56v28zM475 213v-28h54v28h-54z" />
    <glyph glyph-name="c" unicode="c" horiz-adv-x="950" 
d="M400 1002h57q372 0 372 -87v-436q0 -58 -172 -58v-58q0 -69 229 -116v-174l-57 -58h-115q-686 0 -686 261v87q0 639 372 639zM114 363q0 -261 372 -261h286v116q-143 0 -201 174q0 117 172 117l29 377l-29 29h-429q-200 -73 -200 -552z" />
    <glyph glyph-name="d" unicode="d" horiz-adv-x="927" 
d="M100 995h494q309 -41 309 -308v-278q0 -401 -525 -401h-278l-62 62v863zM131 902v-832h216q463 0 463 339v278q0 165 -123 215h-556zM440 502h61l124 -124q-43 -154 -216 -154l-31 31v185zM471 409v-93l61 62l-31 31h-30z" />
    <glyph glyph-name="e" unicode="e" horiz-adv-x="909" 
d="M113 987h695l69 -60v-362q0 -60 -139 -60l35 -30v-211q104 0 104 -60v-121l-69 -60h-661q-104 0 -104 783v121zM182 897l-35 -814h35l382 30h209v61q-209 0 -209 60v90h139v91q-173 0 -173 60v30q0 60 243 90v302h-591z" />
    <glyph glyph-name="f" unicode="f" horiz-adv-x="904" 
d="M752 1002q83 0 109 -415l-146 -30v-30q110 0 110 -59v-89q0 -59 -219 -59v-238l-73 -59q-474 14 -474 89v267l-36 593l36 30h693zM169 913v-771h145l183 -30q0 297 218 297v59q-182 0 -182 119l219 29v149l-37 148h-546z" />
    <glyph glyph-name="g" unicode="g" horiz-adv-x="1048" 
d="M495 1008q391 -36 391 -113v-310q0 -56 -300 -56l-60 -85q45 -113 90 -113q0 169 60 169h240l60 -56v-338q0 -85 -481 -85h-180q-270 37 -270 254v113q0 620 450 620zM135 388v-170q0 -98 300 -141l391 29h60v310h-210v-28q150 0 150 -57v-28l-60 -56h-90
q-241 28 -241 197q42 141 211 141h150v310l-301 28h-30q-330 0 -330 -535zM646 331v-28h90v28h-90z" />
    <glyph glyph-name="h" unicode="h" horiz-adv-x="1063" 
d="M111 1002h362l65 -60v-362h66v332l66 60h230q99 0 99 -542v-332q0 -67 -362 -90l-66 241h-65v-151l-66 -60h-329l-66 60v844zM144 912v-784h230q66 0 66 151l33 30h131q66 0 66 -150l33 -31h230l-66 754h-197v-332l-66 -60h-98l-66 60v362h-296z" />
    <glyph glyph-name="i" unicode="i" horiz-adv-x="746" 
d="M152 1010h422l77 -60l38 -875q-150 -60 -422 -60h-115l-77 60v875zM190 920v-784h422l-38 150v181l-38 453h-346z" />
    <glyph glyph-name="j" unicode="j" horiz-adv-x="950" 
d="M445 1002h343q57 0 57 -93l29 -555q0 -339 -429 -339q-430 30 -430 308q18 186 86 186h200q58 0 58 -155h28l29 93l-29 339v154zM473 909v-555l-86 -92l-143 154h-143v-62q0 -246 286 -246h172q229 0 229 246l-29 555h-286z" />
    <glyph glyph-name="k" unicode="k" horiz-adv-x="1026" 
d="M637 1002l341 -28v-55l-227 -332q0 -118 113 -359l29 28h28l57 -56v-110q0 -62 -313 -83l-170 276l-29 -27v-28l29 -138l-29 -28h-369l-57 56v801l57 55q369 0 369 -165zM637 919q0 -73 -227 -332l-29 28v276h-199l-57 -55v-691h256q0 152 171 249h28q85 -304 142 -304
h171v83q-147 0 -228 442l199 276v28h-227z" />
    <glyph glyph-name="l" unicode="l" horiz-adv-x="934" 
d="M128 987h386l70 -59v-589h211l70 -59v-206l-70 -59h-702l-35 29h-35l35 148v736zM163 899l-35 -796h632v148h-176q-105 0 -105 383v265h-316z" />
    <glyph glyph-name="m" unicode="m" horiz-adv-x="1341" 
d="M302 995q90 0 234 -367h66q134 336 200 336h367l67 -61v-827l-67 -61h-333q-67 0 -67 184l-133 -92h-100q-67 0 -67 92h-33q0 -184 -67 -184h-267l-67 61v368l-33 520l33 31h267zM102 903v-490l33 -306h201v276l66 61l200 -276q60 0 167 245h67l33 -306h300v31l-33 735
h-267l-300 -399q-55 0 -267 429h-200z" />
    <glyph glyph-name="n" unicode="n" horiz-adv-x="1055" 
d="M807 1010h91l61 -62v-746l30 -156l-30 -31h-243q-182 121 -182 218h-30q0 -218 -61 -218h-334l-61 62v715l-30 156l30 31h364q68 0 152 -280h31v93l-31 156zM655 917v-436h-30l-273 405h-213v-778h273v280h31q273 -219 273 -311h30l152 31l-30 778l-31 31h-182z" />
    <glyph glyph-name="o" unicode="o" horiz-adv-x="1010" 
d="M557 995h62q340 0 340 -721q0 -259 -587 -259q-340 0 -340 346q0 605 278 605zM125 390q0 -289 216 -289h124q354 0 401 145q0 588 -185 663h-247q-278 0 -278 -289zM496 534h154l93 -87v-86l-93 -87h-124l-92 87v115zM526 447v-115h93l31 29h31l-31 86h-124z" />
    <glyph glyph-name="p" unicode="p" horiz-adv-x="1055" 
d="M110 995h553q293 0 326 -343v-114q0 -286 -293 -286h-130v-143q0 -65 -456 -86l-65 229v686zM143 909v-800h325v143q0 42 391 114l32 29v228q0 315 -325 315zM533 623h65q98 0 98 -114q-53 -143 -195 -143l-33 29v171zM566 538v-58h32v58h-32z" />
    <glyph glyph-name="q" unicode="q" horiz-adv-x="1024" 
d="M407 1010h58q492 0 492 -423v-174q-36 -199 -174 -199v-25q116 0 116 -50v-74l-58 -50h-290q-57 0 -86 149q-435 0 -435 349q0 497 377 497zM146 712v-274q0 -224 348 -224q67 -149 115 -149h203v74q-145 0 -145 75q203 50 203 199v174q0 348 -232 348h-347
q-87 0 -145 -223zM407 587h144l58 -50v-74l-115 -75q-145 32 -145 75v74zM436 537v-74h29l57 50v24h-86z" />
    <glyph glyph-name="r" unicode="r" horiz-adv-x="1025" 
d="M133 995h521q293 0 326 -327v-27q0 -169 -163 -299v-82q0 -54 98 -54l32 -28v-109l-65 -54h-260q-82 0 -163 272h-33q0 -190 -65 -190h-228q-98 0 -98 707v109zM165 913l-32 -136v-599h195q0 175 98 191h33q81 0 163 -272h228v54q-131 0 -131 218q163 105 163 218v54
q0 272 -228 272h-489zM426 641q196 -17 196 -82q-46 -136 -229 -136l-32 28v136zM459 559v-54h65v54h-65z" />
    <glyph glyph-name="s" unicode="s" horiz-adv-x="1040" 
d="M704 1002q267 -18 267 -87v-377l-67 -59h-233v-29q0 -46 267 -116l33 -145v-58q-54 -116 -233 -116h-600l-67 58v87l67 58h367v29q-467 0 -467 436q0 319 666 319zM138 567q41 -291 466 -291v-58l-66 -58h-367v-87h433q246 0 267 87v87q0 51 -300 145v87q33 88 200 88
h100v290l-67 58h-200q-466 0 -466 -261v-87z" />
    <glyph glyph-name="t" unicode="t" horiz-adv-x="1002" 
d="M911 1002l67 -59q0 -416 -100 -416h-167v-415q0 -66 -366 -89l-33 30v445h-167q-77 0 -100 474l33 30h833zM178 913v-326h167l67 -60v-385h199v59q0 386 100 386h167v326h-700z" />
    <glyph glyph-name="u" unicode="u" horiz-adv-x="1032" 
d="M718 1002h154l62 -62v-61l31 -556q0 -308 -433 -308q-494 0 -494 463v31q0 431 93 431h154l62 -61v-155l31 -370h93v555q19 93 247 93zM563 909v-555l-61 -61h-124q-93 30 -93 185v401h-123l-31 -556q37 -215 278 -215h185q278 0 278 215l-31 586h-278z" />
    <glyph glyph-name="v" unicode="v" horiz-adv-x="957" 
d="M459 987l65 -203h32l65 145q259 -29 259 -87q-73 -811 -162 -811h-356q-65 0 -324 898zM168 871q185 -753 259 -753h259l97 724h-130l-64 -261h-65q-97 319 -162 319h-33z" />
    <glyph glyph-name="w" unicode="w" horiz-adv-x="1530" 
d="M297 987h33q78 0 97 -273l32 -30h33q19 273 97 273h324q97 0 130 -243h32q0 224 97 243h195l97 -91q-89 -820 -162 -820h-292l-162 152q0 -157 -97 -182h-421q-87 0 -292 910zM135 896q195 -789 260 -789h356l65 273h97q40 -227 130 -243h227l97 729h-130
q-73 0 -129 -364h-33q-65 0 -162 364h-259q-65 0 -162 -395h-65q-87 425 -162 425h-130z" />
    <glyph glyph-name="x" unicode="x" horiz-adv-x="1010" 
d="M500 980l69 -146h35q0 88 68 88h241l69 -59q-241 -272 -241 -380l172 -380v-59h-241l-172 -29l-69 146h-34q0 -117 -103 -117h-172l-35 29h-34q182 319 241 322l-241 527zM191 863l172 -468l-172 -263l34 -29h34l172 175q81 -175 138 -175l241 29q-172 301 -172 439
l206 263l-137 29q-67 -133 -138 -146q-103 29 -103 175h-35z" />
    <glyph glyph-name="y" unicode="y" horiz-adv-x="1070" 
d="M673 995h62l248 -61q-248 -534 -248 -674v-184l-62 -61h-309q-62 0 -62 337l-279 582l31 30h403q70 0 92 -153h31q31 184 93 184zM147 873l248 -613v-153h247v153l217 643h-124q-68 0 -124 -245h-93q0 167 -123 245z" />
    <glyph glyph-name="z" unicode="z" horiz-adv-x="1032" 
d="M131 987h749l71 -59v-412l-285 -235q249 0 249 -59v-118l-71 -59h-214l-534 -29l-36 29v148q219 235 321 235v29q-321 0 -321 59v412zM167 899v-383l178 30h143l71 -59l-392 -324v-59h641v89h-249l-71 58l356 295v353h-677z" />
    <glyph glyph-name="braceleft" unicode="{" 
 />
    <glyph glyph-name="bar" unicode="|" 
 />
    <glyph glyph-name="braceright" unicode="}" 
 />
    <glyph glyph-name="asciitilde" unicode="~" 
 />
    <glyph glyph-name="exclamdown" unicode="&#xa1;" horiz-adv-x="672" 
 />
    <glyph glyph-name="cent" unicode="&#xa2;" horiz-adv-x="1139" 
 />
    <glyph glyph-name="sterling" unicode="&#xa3;" 
 />
    <glyph glyph-name="currency" unicode="&#xa4;" 
 />
    <glyph glyph-name="yen" unicode="&#xa5;" horiz-adv-x="1262" 
 />
    <glyph glyph-name="brokenbar" unicode="&#xa6;" 
 />
    <glyph glyph-name="section" unicode="&#xa7;" 
 />
    <glyph glyph-name="dieresis" unicode="&#xa8;" horiz-adv-x="1024" 
 />
    <glyph glyph-name="copyright" unicode="&#xa9;" horiz-adv-x="512" 
d="M270 941h28q153 0 153 -294q0 -106 -264 -106q-153 0 -153 141q0 247 125 247zM68 686q0 -118 97 -118h56q159 0 180 59q0 240 -83 271h-111q-125 0 -125 -118zM207 833h12q77 0 77 -17v-85q0 -11 -36 -11v-11q0 -14 48 -23v-34l-12 -11h-24q-143 0 -143 51v17
q0 124 78 124zM147 709q0 -51 78 -51h59v22q-30 0 -42 34q0 23 36 23l6 73l-6 6h-89q-42 -14 -42 -107z" />
    <glyph glyph-name="ordfeminine" unicode="&#xaa;" horiz-adv-x="648" 
 />
    <glyph glyph-name="guillemotleft" unicode="&#xab;" horiz-adv-x="944" 
 />
    <glyph glyph-name="logicalnot" unicode="&#xac;" 
 />
    <glyph glyph-name="registered" unicode="&#xae;" horiz-adv-x="527" 
d="M270 941h28q153 0 153 -294q0 -106 -264 -106q-153 0 -153 141q0 247 125 247zM68 686q0 -118 97 -118h56q159 0 180 59q0 240 -83 271h-111q-125 0 -125 -118zM161 863h96q54 0 60 -80v-7q0 -41 -30 -73v-20q0 -13 18 -13l6 -7v-27l-12 -13h-48q-15 0 -30 67h-6
q0 -47 -12 -47h-42q-18 0 -18 173v27zM167 843l-6 -33v-147h36q0 43 18 47h6q15 0 30 -67h42v13q-24 0 -24 54q30 25 30 53v13q0 67 -42 67h-90zM215 776q36 -4 36 -20q-8 -33 -42 -33l-6 7v33zM221 756v-13h12v13h-12z" />
    <glyph glyph-name="macron" unicode="&#xaf;" horiz-adv-x="670" 
 />
    <glyph glyph-name="degree" unicode="&#xb0;" horiz-adv-x="674" 
 />
    <glyph glyph-name="plusminus" unicode="&#xb1;" 
 />
    <glyph glyph-name="uni00B2" unicode="&#xb2;" horiz-adv-x="610" 
d="M148 1008h187q207 -34 207 -187q0 -132 -188 -221v-17q150 0 150 -34v-68q-18 -51 -112 -51h-319l-38 34v85l113 102v34q-113 0 -113 34v238q19 51 113 51zM73 940q0 -221 112 -221l19 -51l-113 -136v-51h357v51h-206v17q244 154 244 272q-14 136 -151 136h-131z" />
    <glyph glyph-name="uni00B3" unicode="&#xb3;" horiz-adv-x="543" 
d="M88 1017h174q173 -14 173 -141v-15l-29 -85l58 -56v-57q0 -113 -130 -113h-246l-29 28v71q0 28 159 28v14q-116 0 -116 29v28q15 43 87 43v14q-130 0 -130 28v156zM102 975v-142h87l44 -42q-15 -43 -87 -43v-14q116 0 116 -43v-14q-9 -42 -116 -42h-44v-43l102 -14
q217 10 217 57v85l-44 42l15 99v43q0 75 -217 85z" />
    <glyph glyph-name="acute" unicode="&#xb4;" horiz-adv-x="1024" 
 />
    <glyph glyph-name="mu" unicode="&#xb5;" horiz-adv-x="1180" 
 />
    <glyph glyph-name="paragraph" unicode="&#xb6;" horiz-adv-x="1024" 
 />
    <glyph glyph-name="periodcentered" unicode="&#xb7;" horiz-adv-x="508" 
 />
    <glyph glyph-name="periodcentered" unicode="&#x2219;" horiz-adv-x="508" 
 />
    <glyph glyph-name="cedilla" unicode="&#xb8;" horiz-adv-x="1024" 
 />
    <glyph glyph-name="uni00B9" unicode="&#xb9;" 
 />
    <glyph glyph-name="ordmasculine" unicode="&#xba;" horiz-adv-x="718" 
 />
    <glyph glyph-name="guillemotright" unicode="&#xbb;" horiz-adv-x="944" 
 />
    <glyph glyph-name="onequarter" unicode="&#xbc;" horiz-adv-x="1708" 
 />
    <glyph glyph-name="onehalf" unicode="&#xbd;" horiz-adv-x="1964" 
 />
    <glyph glyph-name="threequarters" unicode="&#xbe;" horiz-adv-x="1708" 
 />
    <glyph glyph-name="questiondown" unicode="&#xbf;" horiz-adv-x="748" 
 />
    <glyph glyph-name="Agrave" unicode="&#xc0;" horiz-adv-x="1017" 
d="M771 1010q61 0 153 -963l-31 -31h-214q-62 0 -62 93h-92q0 -93 -91 -93q-399 0 -399 93q193 870 245 870zM127 140l337 -62q0 93 61 93h123l92 -62h123q-115 808 -184 808h-62q-337 0 -337 -155zM617 482l62 -217l-31 -32h-123q0 230 92 249z" />
    <glyph glyph-name="Aacute" unicode="&#xc1;" horiz-adv-x="1002" 
d="M771 1010q61 0 153 -963l-31 -31h-214q-62 0 -62 93h-92q0 -93 -91 -93q-399 0 -399 93q193 870 245 870zM127 140l337 -62q0 93 61 93h123l92 -62h123q-115 808 -184 808h-62q-337 0 -337 -155zM617 482l62 -217l-31 -32h-123q0 230 92 249z" />
    <glyph glyph-name="Acircumflex" unicode="&#xc2;" horiz-adv-x="1002" 
d="M771 1010q61 0 153 -963l-31 -31h-214q-62 0 -62 93h-92q0 -93 -91 -93q-399 0 -399 93q193 870 245 870zM127 140l337 -62q0 93 61 93h123l92 -62h123q-115 808 -184 808h-62q-337 0 -337 -155zM617 482l62 -217l-31 -32h-123q0 230 92 249z" />
    <glyph glyph-name="Atilde" unicode="&#xc3;" horiz-adv-x="1002" 
d="M771 1010q61 0 153 -963l-31 -31h-214q-62 0 -62 93h-92q0 -93 -91 -93q-399 0 -399 93q193 870 245 870zM127 140l337 -62q0 93 61 93h123l92 -62h123q-115 808 -184 808h-62q-337 0 -337 -155zM617 482l62 -217l-31 -32h-123q0 230 92 249z" />
    <glyph glyph-name="Adieresis" unicode="&#xc4;" horiz-adv-x="1010" 
d="M771 1010q61 0 153 -963l-31 -31h-214q-62 0 -62 93h-92q0 -93 -91 -93q-399 0 -399 93q193 870 245 870zM127 140l337 -62q0 93 61 93h123l92 -62h123q-115 808 -184 808h-62q-337 0 -337 -155zM617 482l62 -217l-31 -32h-123q0 230 92 249z" />
    <glyph glyph-name="Aring" unicode="&#xc5;" horiz-adv-x="1002" 
d="M771 1010q61 0 153 -963l-31 -31h-214q-62 0 -62 93h-92q0 -93 -91 -93q-399 0 -399 93q193 870 245 870zM127 140l337 -62q0 93 61 93h123l92 -62h123q-115 808 -184 808h-62q-337 0 -337 -155zM617 482l62 -217l-31 -32h-123q0 230 92 249z" />
    <glyph glyph-name="AE" unicode="&#xc6;" horiz-adv-x="2118" 
d="M772 995h695l69 -60v-362q0 -60 -139 -60l35 -30v-211q104 0 104 -60v-121l-69 -60h-661q-104 0 -104 783v121zM806 91h35l382 30h209v61q-209 0 -209 60v90h139v91q-173 0 -173 60v30q0 60 243 90v302h-591l-19 -447zM751 1010q61 0 153 -963l-31 -31h-214q-62 0 -62 93
h-92q0 -93 -91 -93q-399 0 -399 93q193 870 245 870zM107 140l337 -62q0 93 61 93h123l92 -62h123q-115 808 -184 808h-62q-337 0 -337 -155zM597 482l62 -217l-31 -32h-123q0 230 92 249z" />
    <glyph glyph-name="Ccedilla" unicode="&#xc7;" horiz-adv-x="950" 
d="M400 1002h57q372 0 372 -87v-436q0 -58 -172 -58v-58q0 -69 229 -116v-174l-57 -58h-115q-686 0 -686 261v87q0 639 372 639zM114 363q0 -261 372 -261h286v116q-143 0 -201 174q0 117 172 117l29 377l-29 29h-429q-200 -73 -200 -552z" />
    <glyph glyph-name="Egrave" unicode="&#xc8;" horiz-adv-x="1002" 
d="M133 987h695l69 -60v-362q0 -60 -139 -60l35 -30v-211q104 0 104 -60v-121l-69 -60h-661q-104 0 -104 783v121zM202 897l-35 -814h35l382 30h209v61q-209 0 -209 60v90h139v91q-173 0 -173 60v30q0 60 243 90v302h-591z" />
    <glyph glyph-name="Eacute" unicode="&#xc9;" horiz-adv-x="972" 
d="M143 987h695l69 -60v-362q0 -60 -139 -60l35 -30v-211q104 0 104 -60v-121l-69 -60h-661q-104 0 -104 783v121zM212 897l-35 -814h35l382 30h209v61q-209 0 -209 60v90h139v91q-173 0 -173 60v30q0 60 243 90v302h-591z" />
    <glyph glyph-name="Ecircumflex" unicode="&#xca;" horiz-adv-x="980" 
d="M143 987h695l69 -60v-362q0 -60 -139 -60l35 -30v-211q104 0 104 -60v-121l-69 -60h-661q-104 0 -104 783v121zM212 897l-35 -814h35l382 30h209v61q-209 0 -209 60v90h139v91q-173 0 -173 60v30q0 60 243 90v302h-591z" />
    <glyph glyph-name="Edieresis" unicode="&#xcb;" horiz-adv-x="995" 
d="M924 1009h695l69 -60v-362q0 -60 -139 -60l35 -30v-211q104 0 104 -60v-121l-69 -60h-661q-104 0 -104 783v121zM993 919l-35 -814h35l382 30h209v61q-209 0 -209 60v90h139v91q-173 0 -173 60v30q0 60 243 90v302h-591z" />
    <glyph glyph-name="Igrave" unicode="&#xcc;" horiz-adv-x="746" 
d="M152 1010h422l77 -60l38 -875q-150 -60 -422 -60h-115l-77 60v875zM190 920v-784h422l-38 150v181l-38 453h-346z" />
    <glyph glyph-name="Iacute" unicode="&#xcd;" horiz-adv-x="746" 
d="M152 1010h422l77 -60l38 -875q-150 -60 -422 -60h-115l-77 60v875zM190 920v-784h422l-38 150v181l-38 453h-346z" />
    <glyph glyph-name="Icircumflex" unicode="&#xce;" horiz-adv-x="746" 
d="M152 1010h422l77 -60l38 -875q-150 -60 -422 -60h-115l-77 60v875zM190 920v-784h422l-38 150v181l-38 453h-346z" />
    <glyph glyph-name="Idieresis" unicode="&#xcf;" horiz-adv-x="746" 
d="M152 1010h422l77 -60l38 -875q-150 -60 -422 -60h-115l-77 60v875zM190 920v-784h422l-38 150v181l-38 453h-346z" />
    <glyph glyph-name="Eth" unicode="&#xd0;" horiz-adv-x="1518" 
 />
    <glyph glyph-name="Ntilde" unicode="&#xd1;" horiz-adv-x="1055" 
d="M807 1010h91l61 -62v-746l30 -156l-30 -31h-243q-182 121 -182 218h-30q0 -218 -61 -218h-334l-61 62v715l-30 156l30 31h364q68 0 152 -280h31v93l-31 156zM655 917v-436h-30l-273 405h-213v-778h273v280h31q273 -219 273 -311h30l152 31l-30 778l-31 31h-182z" />
    <glyph glyph-name="Ograve" unicode="&#xd2;" horiz-adv-x="984" 
d="M424 1005h62q493 0 493 -464v-232q0 -290 -493 -290q-423 0 -462 464q0 522 400 522zM147 628v-261q0 -261 339 -261h123q278 0 278 203v261q0 348 -339 348h-154q-247 0 -247 -290zM394 686h61l93 -87v-58l-93 -87h-61l-93 87v58zM394 628v-87h61v29z" />
    <glyph glyph-name="Oacute" unicode="&#xd3;" horiz-adv-x="984" 
d="M424 1005h62q493 0 493 -464v-232q0 -290 -493 -290q-423 0 -462 464q0 522 400 522zM147 628v-261q0 -261 339 -261h123q278 0 278 203v261q0 348 -339 348h-154q-247 0 -247 -290zM394 686h61l93 -87v-58l-93 -87h-61l-93 87v58zM394 628v-87h61v29z" />
    <glyph glyph-name="Ocircumflex" unicode="&#xd4;" horiz-adv-x="984" 
d="M424 1005h62q493 0 493 -464v-232q0 -290 -493 -290q-423 0 -462 464q0 522 400 522zM147 628v-261q0 -261 339 -261h123q278 0 278 203v261q0 348 -339 348h-154q-247 0 -247 -290zM394 686h61l93 -87v-58l-93 -87h-61l-93 87v58zM394 628v-87h61v29z" />
    <glyph glyph-name="Otilde" unicode="&#xd5;" horiz-adv-x="984" 
d="M424 1005h62q493 0 493 -464v-232q0 -290 -493 -290q-423 0 -462 464q0 522 400 522zM147 628v-261q0 -261 339 -261h123q278 0 278 203v261q0 348 -339 348h-154q-247 0 -247 -290zM394 686h61l93 -87v-58l-93 -87h-61l-93 87v58zM394 628v-87h61v29z" />
    <glyph glyph-name="Odieresis" unicode="&#xd6;" horiz-adv-x="984" 
d="M424 1005h62q493 0 493 -464v-232q0 -290 -493 -290q-423 0 -462 464q0 522 400 522zM147 628v-261q0 -261 339 -261h123q278 0 278 203v261q0 348 -339 348h-154q-247 0 -247 -290zM394 686h61l93 -87v-58l-93 -87h-61l-93 87v58zM394 628v-87h61v29z" />
    <glyph glyph-name="multiply" unicode="&#xd7;" horiz-adv-x="678" 
d="M325 610l42 -90h21q0 54 41 54h147l42 -36q-147 -168 -147 -234l105 -235v-36h-147l-104 -18l-42 90h-21q0 -72 -62 -72h-105l-21 18h-21q111 196 147 198l-147 325zM137 538l105 -289l-105 -162l21 -18h20l105 108q49 -108 84 -108l146 18q-104 186 -104 271l125 162
l-83 18q-41 -82 -84 -90q-63 18 -63 108h-21z" />
    <glyph glyph-name="Oslash" unicode="&#xd8;" horiz-adv-x="1614" 
 />
    <glyph glyph-name="Ugrave" unicode="&#xd9;" horiz-adv-x="1032" 
d="M718 1002h154l62 -62v-61l31 -556q0 -308 -433 -308q-494 0 -494 463v31q0 431 93 431h154l62 -61v-155l31 -370h93v555q19 93 247 93zM563 909v-555l-61 -61h-124q-93 30 -93 185v401h-123l-31 -556q37 -215 278 -215h185q278 0 278 215l-31 586h-278z" />
    <glyph glyph-name="Uacute" unicode="&#xda;" horiz-adv-x="1032" 
d="M718 1002h154l62 -62v-61l31 -556q0 -308 -433 -308q-494 0 -494 463v31q0 431 93 431h154l62 -61v-155l31 -370h93v555q19 93 247 93zM563 909v-555l-61 -61h-124q-93 30 -93 185v401h-123l-31 -556q37 -215 278 -215h185q278 0 278 215l-31 586h-278z" />
    <glyph glyph-name="Ucircumflex" unicode="&#xdb;" horiz-adv-x="1032" 
d="M718 1002h154l62 -62v-61l31 -556q0 -308 -433 -308q-494 0 -494 463v31q0 431 93 431h154l62 -61v-155l31 -370h93v555q19 93 247 93zM563 909v-555l-61 -61h-124q-93 30 -93 185v401h-123l-31 -556q37 -215 278 -215h185q278 0 278 215l-31 586h-278z" />
    <glyph glyph-name="Udieresis" unicode="&#xdc;" horiz-adv-x="1032" 
d="M718 1002h154l62 -62v-61l31 -556q0 -308 -433 -308q-494 0 -494 463v31q0 431 93 431h154l62 -61v-155l31 -370h93v555q19 93 247 93zM563 909v-555l-61 -61h-124q-93 30 -93 185v401h-123l-31 -556q37 -215 278 -215h185q278 0 278 215l-31 586h-278z" />
    <glyph glyph-name="Yacute" unicode="&#xdd;" horiz-adv-x="1233" 
 />
    <glyph glyph-name="Thorn" unicode="&#xde;" horiz-adv-x="1120" 
 />
    <glyph glyph-name="germandbls" unicode="&#xdf;" horiz-adv-x="1251" 
 />
    <glyph glyph-name="agrave" unicode="&#xe0;" horiz-adv-x="1002" 
d="M771 1010q61 0 153 -963l-31 -31h-214q-62 0 -62 93h-92q0 -93 -91 -93q-399 0 -399 93q193 870 245 870zM127 140l337 -62q0 93 61 93h123l92 -62h123q-115 808 -184 808h-62q-337 0 -337 -155zM617 482l62 -217l-31 -32h-123q0 230 92 249z" />
    <glyph glyph-name="aacute" unicode="&#xe1;" horiz-adv-x="1002" 
d="M771 1010q61 0 153 -963l-31 -31h-214q-62 0 -62 93h-92q0 -93 -91 -93q-399 0 -399 93q193 870 245 870zM127 140l337 -62q0 93 61 93h123l92 -62h123q-115 808 -184 808h-62q-337 0 -337 -155zM617 482l62 -217l-31 -32h-123q0 230 92 249z" />
    <glyph glyph-name="acircumflex" unicode="&#xe2;" horiz-adv-x="1002" 
d="M771 1010q61 0 153 -963l-31 -31h-214q-62 0 -62 93h-92q0 -93 -91 -93q-399 0 -399 93q193 870 245 870zM127 140l337 -62q0 93 61 93h123l92 -62h123q-115 808 -184 808h-62q-337 0 -337 -155zM617 482l62 -217l-31 -32h-123q0 230 92 249z" />
    <glyph glyph-name="atilde" unicode="&#xe3;" horiz-adv-x="1002" 
d="M771 1010q61 0 153 -963l-31 -31h-214q-62 0 -62 93h-92q0 -93 -91 -93q-399 0 -399 93q193 870 245 870zM127 140l337 -62q0 93 61 93h123l92 -62h123q-115 808 -184 808h-62q-337 0 -337 -155zM617 482l62 -217l-31 -32h-123q0 230 92 249z" />
    <glyph glyph-name="adieresis" unicode="&#xe4;" horiz-adv-x="1002" 
d="M771 1010q61 0 153 -963l-31 -31h-214q-62 0 -62 93h-92q0 -93 -91 -93q-399 0 -399 93q193 870 245 870zM127 140l337 -62q0 93 61 93h123l92 -62h123q-115 808 -184 808h-62q-337 0 -337 -155zM617 482l62 -217l-31 -32h-123q0 230 92 249z" />
    <glyph glyph-name="aring" unicode="&#xe5;" horiz-adv-x="1002" 
d="M771 1010q61 0 153 -963l-31 -31h-214q-62 0 -62 93h-92q0 -93 -91 -93q-399 0 -399 93q193 870 245 870zM127 140l337 -62q0 93 61 93h123l92 -62h123q-115 808 -184 808h-62q-337 0 -337 -155zM617 482l62 -217l-31 -32h-123q0 230 92 249z" />
    <glyph glyph-name="ae" unicode="&#xe6;" horiz-adv-x="2118" 
d="M772 995h695l69 -60v-362q0 -60 -139 -60l35 -30v-211q104 0 104 -60v-121l-69 -60h-661q-104 0 -104 783v121zM806 91h35l382 30h209v61q-209 0 -209 60v90h139v91q-173 0 -173 60v30q0 60 243 90v302h-591l-19 -447zM751 1010q61 0 153 -963l-31 -31h-214q-62 0 -62 93
h-92q0 -93 -91 -93q-399 0 -399 93q193 870 245 870zM107 140l337 -62q0 93 61 93h123l92 -62h123q-115 808 -184 808h-62q-337 0 -337 -155zM597 482l62 -217l-31 -32h-123q0 230 92 249z" />
    <glyph glyph-name="ccedilla" unicode="&#xe7;" horiz-adv-x="950" 
d="M400 1002h57q372 0 372 -87v-436q0 -58 -172 -58v-58q0 -69 229 -116v-174l-57 -58h-115q-686 0 -686 261v87q0 639 372 639zM114 363q0 -261 372 -261h286v116q-143 0 -201 174q0 117 172 117l29 377l-29 29h-429q-200 -73 -200 -552z" />
    <glyph glyph-name="egrave" unicode="&#xe8;" horiz-adv-x="972" 
d="M143 987h695l69 -60v-362q0 -60 -139 -60l35 -30v-211q104 0 104 -60v-121l-69 -60h-661q-104 0 -104 783v121zM212 897l-35 -814h35l382 30h209v61q-209 0 -209 60v90h139v91q-173 0 -173 60v30q0 60 243 90v302h-591z" />
    <glyph glyph-name="eacute" unicode="&#xe9;" horiz-adv-x="972" 
d="M143 987h695l69 -60v-362q0 -60 -139 -60l35 -30v-211q104 0 104 -60v-121l-69 -60h-661q-104 0 -104 783v121zM212 897l-35 -814h35l382 30h209v61q-209 0 -209 60v90h139v91q-173 0 -173 60v30q0 60 243 90v302h-591z" />
    <glyph glyph-name="ecircumflex" unicode="&#xea;" horiz-adv-x="972" 
d="M143 987h695l69 -60v-362q0 -60 -139 -60l35 -30v-211q104 0 104 -60v-121l-69 -60h-661q-104 0 -104 783v121zM212 897l-35 -814h35l382 30h209v61q-209 0 -209 60v90h139v91q-173 0 -173 60v30q0 60 243 90v302h-591z" />
    <glyph glyph-name="edieresis" unicode="&#xeb;" horiz-adv-x="972" 
d="M143 987h695l69 -60v-362q0 -60 -139 -60l35 -30v-211q104 0 104 -60v-121l-69 -60h-661q-104 0 -104 783v121zM212 897l-35 -814h35l382 30h209v61q-209 0 -209 60v90h139v91q-173 0 -173 60v30q0 60 243 90v302h-591z" />
    <glyph glyph-name="igrave" unicode="&#xec;" horiz-adv-x="972" 
d="M143 987h695l69 -60v-362q0 -60 -139 -60l35 -30v-211q104 0 104 -60v-121l-69 -60h-661q-104 0 -104 783v121zM212 897l-35 -814h35l382 30h209v61q-209 0 -209 60v90h139v91q-173 0 -173 60v30q0 60 243 90v302h-591z" />
    <glyph glyph-name="iacute" unicode="&#xed;" horiz-adv-x="514" 
 />
    <glyph glyph-name="icircumflex" unicode="&#xee;" horiz-adv-x="514" 
 />
    <glyph glyph-name="idieresis" unicode="&#xef;" horiz-adv-x="514" 
 />
    <glyph glyph-name="eth" unicode="&#xf0;" horiz-adv-x="1139" 
 />
    <glyph glyph-name="ntilde" unicode="&#xf1;" horiz-adv-x="1055" 
d="M807 1010h91l61 -62v-746l30 -156l-30 -31h-243q-182 121 -182 218h-30q0 -218 -61 -218h-334l-61 62v715l-30 156l30 31h364q68 0 152 -280h31v93l-31 156zM655 917v-436h-30l-273 405h-213v-778h273v280h31q273 -219 273 -311h30l152 31l-30 778l-31 31h-182z" />
    <glyph glyph-name="ograve" unicode="&#xf2;" horiz-adv-x="987" 
d="M557 995h62q340 0 340 -721q0 -259 -587 -259q-340 0 -340 346q0 605 278 605zM125 390q0 -289 216 -289h124q354 0 401 145q0 588 -185 663h-247q-278 0 -278 -289zM496 534h154l93 -87v-86l-93 -87h-124l-92 87v115zM526 447v-115h93l31 29h31l-31 86h-124z" />
    <glyph glyph-name="oacute" unicode="&#xf3;" horiz-adv-x="987" 
d="M557 995h62q340 0 340 -721q0 -259 -587 -259q-340 0 -340 346q0 605 278 605zM125 390q0 -289 216 -289h124q354 0 401 145q0 588 -185 663h-247q-278 0 -278 -289zM496 534h154l93 -87v-86l-93 -87h-124l-92 87v115zM526 447v-115h93l31 29h31l-31 86h-124z" />
    <glyph glyph-name="ocircumflex" unicode="&#xf4;" horiz-adv-x="987" 
d="M557 995h62q340 0 340 -721q0 -259 -587 -259q-340 0 -340 346q0 605 278 605zM125 390q0 -289 216 -289h124q354 0 401 145q0 588 -185 663h-247q-278 0 -278 -289zM496 534h154l93 -87v-86l-93 -87h-124l-92 87v115zM526 447v-115h93l31 29h31l-31 86h-124z" />
    <glyph glyph-name="otilde" unicode="&#xf5;" horiz-adv-x="987" 
d="M557 995h62q340 0 340 -721q0 -259 -587 -259q-340 0 -340 346q0 605 278 605zM125 390q0 -289 216 -289h124q354 0 401 145q0 588 -185 663h-247q-278 0 -278 -289zM496 534h154l93 -87v-86l-93 -87h-124l-92 87v115zM526 447v-115h93l31 29h31l-31 86h-124z" />
    <glyph glyph-name="odieresis" unicode="&#xf6;" horiz-adv-x="987" 
d="M557 995h62q340 0 340 -721q0 -259 -587 -259q-340 0 -340 346q0 605 278 605zM125 390q0 -289 216 -289h124q354 0 401 145q0 588 -185 663h-247q-278 0 -278 -289zM496 534h154l93 -87v-86l-93 -87h-124l-92 87v115zM526 447v-115h93l31 29h31l-31 86h-124z" />
    <glyph glyph-name="divide" unicode="&#xf7;" 
 />
    <glyph glyph-name="oslash" unicode="&#xf8;" horiz-adv-x="1010" 
 />
    <glyph glyph-name="ugrave" unicode="&#xf9;" horiz-adv-x="1032" 
d="M718 1002h154l62 -62v-61l31 -556q0 -308 -433 -308q-494 0 -494 463v31q0 431 93 431h154l62 -61v-155l31 -370h93v555q19 93 247 93zM563 909v-555l-61 -61h-124q-93 30 -93 185v401h-123l-31 -556q37 -215 278 -215h185q278 0 278 215l-31 586h-278z" />
    <glyph glyph-name="uacute" unicode="&#xfa;" horiz-adv-x="1032" 
d="M718 1002h154l62 -62v-61l31 -556q0 -308 -433 -308q-494 0 -494 463v31q0 431 93 431h154l62 -61v-155l31 -370h93v555q19 93 247 93zM563 909v-555l-61 -61h-124q-93 30 -93 185v401h-123l-31 -556q37 -215 278 -215h185q278 0 278 215l-31 586h-278z" />
    <glyph glyph-name="ucircumflex" unicode="&#xfb;" horiz-adv-x="1032" 
d="M718 1002h154l62 -62v-61l31 -556q0 -308 -433 -308q-494 0 -494 463v31q0 431 93 431h154l62 -61v-155l31 -370h93v555q19 93 247 93zM563 909v-555l-61 -61h-124q-93 30 -93 185v401h-123l-31 -556q37 -215 278 -215h185q278 0 278 215l-31 586h-278z" />
    <glyph glyph-name="udieresis" unicode="&#xfc;" horiz-adv-x="1032" 
d="M718 1002h154l62 -62v-61l31 -556q0 -308 -433 -308q-494 0 -494 463v31q0 431 93 431h154l62 -61v-155l31 -370h93v555q19 93 247 93zM563 909v-555l-61 -61h-124q-93 30 -93 185v401h-123l-31 -556q37 -215 278 -215h185q278 0 278 215l-31 586h-278z" />
    <glyph glyph-name="yacute" unicode="&#xfd;" horiz-adv-x="868" 
 />
    <glyph glyph-name="thorn" unicode="&#xfe;" horiz-adv-x="1010" 
 />
    <glyph glyph-name="ydieresis" unicode="&#xff;" horiz-adv-x="868" 
 />
    <glyph glyph-name="circumflex" unicode="&#x2c6;" horiz-adv-x="1024" 
 />
    <glyph glyph-name="tilde" unicode="&#x2dc;" horiz-adv-x="1024" 
 />
    <glyph glyph-name="endash" unicode="&#x2013;" horiz-adv-x="1108" 
 />
    <glyph glyph-name="emdash" unicode="&#x2014;" horiz-adv-x="2048" 
 />
    <glyph glyph-name="quoteleft" unicode="&#x2018;" horiz-adv-x="557" 
 />
    <glyph glyph-name="quoteright" unicode="&#x2019;" horiz-adv-x="557" 
 />
    <glyph glyph-name="quotesinglbase" unicode="&#x201a;" horiz-adv-x="557" 
 />
    <glyph glyph-name="quotedblleft" unicode="&#x201c;" horiz-adv-x="910" 
 />
    <glyph glyph-name="quotedblright" unicode="&#x201d;" horiz-adv-x="910" 
 />
    <glyph glyph-name="quotedblbase" unicode="&#x201e;" horiz-adv-x="910" 
 />
    <glyph glyph-name="dagger" unicode="&#x2020;" 
 />
    <glyph glyph-name="daggerdbl" unicode="&#x2021;" 
 />
    <glyph glyph-name="bullet" unicode="&#x2022;" horiz-adv-x="1024" 
 />
    <glyph glyph-name="ellipsis" unicode="&#x2026;" horiz-adv-x="2048" 
 />
    <glyph glyph-name="guilsinglleft" unicode="&#x2039;" horiz-adv-x="631" 
 />
    <glyph glyph-name="guilsinglright" unicode="&#x203a;" horiz-adv-x="631" 
 />
    <glyph glyph-name="Euro" unicode="&#x20ac;" horiz-adv-x="2867" 
d="M687 1076h243l44 -36v-353h134l44 -35v-123l-44 -36h-443l-23 18h-22l22 88v441zM709 1023l-22 -477h399v89h-112q-66 0 -66 229v159h-199zM1603 1070q35 0 88 -552l-18 -18h-123q-35 0 -35 54h-53q0 -54 -52 -54q-229 0 -229 54q111 498 140 498zM1234 571l193 -35
q0 53 35 53h71l52 -35h71q-66 463 -106 463h-35q-194 0 -194 -89zM1515 768l35 -125l-17 -18h-71q0 132 53 143zM1984 1048q223 -20 223 -63v-172q0 -31 -171 -31l-35 -47q26 -63 52 -63q0 94 34 94h137l34 -31v-187q0 -48 -274 -48h-103q-154 21 -154 141v63q0 344 257 344
zM1778 704v-94q0 -55 171 -79l224 17h34v172h-120v-16q86 0 86 -32v-15l-35 -31h-51q-138 15 -138 109q24 78 121 78h86v172l-172 16h-17q-189 0 -189 -297zM2070 672v-15h51v15h-51zM2374 1096h451l45 -36v-216q0 -36 -90 -36l23 -18v-126q67 0 67 -36v-72l-45 -36h-429
q-67 0 -67 468v72zM2419 1042l-23 -486h23l248 18h136v36q-136 0 -136 36v54h90v54q-112 0 -112 36v18q0 36 158 54v180h-384zM813 451q173 -17 173 -53v-144q0 -27 -133 -27l-27 -39q20 -53 40 -53q0 79 27 79h107l26 -26v-158q0 -40 -213 -40h-80q-120 17 -120 119v53
q0 289 200 289zM653 162v-80q0 -46 133 -66l174 14h26v145h-93v-13q67 0 67 -27v-13l-27 -26h-40q-107 13 -107 92q19 66 94 66h66v144l-133 14h-14q-146 0 -146 -250zM880 135v-13h40v13h-40zM687 1076h243l44 -36v-353h134l44 -35v-123l-44 -36h-443l-23 18h-22l22 88v441
zM709 1023l-22 -477h399v89h-112q-66 0 -66 229v159h-199zM1603 1070q35 0 88 -552l-18 -18h-123q-35 0 -35 54h-53q0 -54 -52 -54q-229 0 -229 54q111 498 140 498zM1234 571l193 -35q0 53 35 53h71l52 -35h71q-66 463 -106 463h-35q-194 0 -194 -89zM1515 768l35 -125
l-17 -18h-71q0 132 53 143zM1110 429h195l36 -27v-270h107l35 -27v-95l-35 -27h-356l-17 13h-18l18 68v338zM1128 389l-18 -366h320v68h-89q-53 0 -53 176v122h-160zM1845 425q28 0 70 -423l-14 -14h-99q-28 0 -28 41h-42q0 -41 -42 -41q-184 0 -184 41q89 382 113 382z
M1548 43l156 -27q0 41 28 41h56l42 -28h57q-53 355 -85 355h-28q-155 0 -155 -68zM1774 193l28 -95l-14 -14h-56q0 101 42 109zM348 282h194l19 -17v-98q0 -16 -38 -16l9 -8v-57q29 0 29 -17v-32l-19 -17h-184q-30 0 -30 213v32zM367 257l-9 -220h9l107 8h58v16
q-58 0 -58 17v24h39v25q-49 0 -49 16v8q0 16 68 24v82h-165zM73 287h143q90 -10 90 -77v-69q0 -100 -152 -100h-81l-18 15v216zM82 264v-208h63q134 0 134 85v69q0 41 -35 54h-162zM172 164h17l37 -31q-13 -38 -63 -38l-9 7v47zM181 141v-23l17 15l-9 8h-8zM2121 453h26
q171 0 171 -41v-206q0 -28 -79 -28v-27q0 -33 105 -55v-83l-26 -27h-53q-314 0 -314 124v41q0 302 170 302zM1990 151q0 -124 171 -124h131v55q-66 0 -92 82q0 56 79 56l13 178l-13 14h-197q-92 -34 -92 -261zM2461 452h339l33 -28v-169q0 -28 -68 -28l18 -14v-98
q50 0 50 -28v-57l-33 -28h-323q-50 0 -50 366v56zM2494 410l-17 -380h17l187 14h102v29q-102 0 -102 28v42h67v42q-84 0 -84 28v14q0 28 119 42v141h-289zM1176 1085l39 -39l-39 -157h-20q-47 0 -59 176l20 20h59z" />
    <glyph glyph-name="trademark" unicode="&#x2122;" horiz-adv-x="1497" 
 />
  </font>
</defs>
</svg>
